<svg width="24" height="24" viewBox="0 0 24 24" fill="none" xmlns="http://www.w3.org/2000/svg">
<path fill-rule="evenodd" clip-rule="evenodd" d="M12.1036 0.636547L14.4676 3H20.5C22.1569 3 23.5 4.34315 23.5 6V21C23.5 22.6569 22.1569 24 20.5 24H3C1.34315 24 0 22.6569 0 21V6C0 4.34315 1.34315 3 3 3H9.03L11.3962 0.636388C11.5918 0.441561 11.9082 0.441633 12.1036 0.636547ZM11.7495 2.40365L9.94366 4.2075C9.75615 4.3948 9.50197 4.5 9.23694 4.5H3C2.17157 4.5 1.5 5.17157 1.5 6V21C1.5 21.8284 2.17157 22.5 3 22.5H4C4 19.7386 6.23858 17.5 9 17.5H14.5C17.2614 17.5 19.5 19.7386 19.5 22.5H20.5C21.3284 22.5 22 21.8284 22 21V6C22 5.17157 21.3284 4.5 20.5 4.5H14.2605C13.9953 4.5 13.741 4.39467 13.5534 4.20718L11.7495 2.40365ZM14.5 19C16.433 19 18 20.567 18 22.5H5.5C5.5 20.567 7.067 19 9 19H14.5ZM11.75 6.5C14.3734 6.5 16.5 8.62665 16.5 11.25C16.5 13.8734 14.3734 16 11.75 16C9.12665 16 7 13.8734 7 11.25C7 8.62665 9.12665 6.5 11.75 6.5ZM8.5 11.25C8.5 9.45507 9.95507 8 11.75 8C13.5449 8 15 9.45507 15 11.25C15 13.0449 13.5449 14.5 11.75 14.5C9.95507 14.5 8.5 13.0449 8.5 11.25Z" fill="black" fill-opacity="0.4"/>
</svg>
